<svg width="30" height="16.764705882352942" viewBox="0 0 34 19" fill="none" xmlns="http://www.w3.org/2000/svg"><path fill-rule="evenodd" clip-rule="evenodd" d="M4 14.538L11.4501 18.6144C12.9007 19.4081 14.7556 18.9371 15.5932 17.5623C16.4307 16.1875 15.9337 14.4296 14.483 13.6359L9.66545 10.9999L5.3041 13.8943C4.89102 14.1685 4.45245 14.3824 4 14.538Z" fill="#F0402C"></path><path fill-rule="evenodd" clip-rule="evenodd" d="M1.21234 7.49324L10.5265 0.547832C11.8125 -0.41113 13.585 -0.0783929 14.4856 1.29102C14.7107 1.63337 14.8601 2.00811 14.9373 2.39262C15.0656 3.03097 14.9952 3.69627 14.7433 4.28509C14.54 4.76029 14.2184 5.18567 13.7877 5.50688L4.47354 12.4523C3.18753 13.4113 1.41497 13.0785 0.51441 11.7091C0.16659 11.1802 -0.000280332 10.574 3.53494e-07 9.97388C0.000456113 9.02019 0.423025 8.08182 1.21234 7.49324Z" fill="#F0402C"></path><path fill-rule="evenodd" clip-rule="evenodd" d="M4 14.538L11.4501 18.6144C12.9007 19.4081 14.7556 18.9371 15.5932 17.5623C16.4307 16.1875 15.9337 14.4296 14.483 13.6359L9.66545 10.9999L5.3041 13.8943C4.89102 14.1685 4.45245 14.3824 4 14.538Z" fill="url(#paint0_linear_441_2522)"></path><path fill-rule="evenodd" clip-rule="evenodd" d="M30 4.4619L22.5499 0.385567C21.0993 -0.408158 19.2444 0.0628744 18.4068 1.43764C17.5693 2.81242 18.0663 4.57033 19.517 5.36405L24.3345 8L28.6959 5.1056C29.109 4.83146 29.5476 4.61754 30 4.4619Z" fill="#F0402C"></path><path fill-rule="evenodd" clip-rule="evenodd" d="M30 4.4619L22.5499 0.385567C21.0993 -0.408158 19.2444 0.0628744 18.4068 1.43764C17.5693 2.81242 18.0663 4.57033 19.517 5.36405L24.3345 8L28.6959 5.1056C29.109 4.83146 29.5476 4.61754 30 4.4619Z" fill="url(#paint1_linear_441_2522)"></path><path fill-rule="evenodd" clip-rule="evenodd" d="M32.7877 12.0832L23.4735 18.4944C22.1875 19.3796 20.415 19.0724 19.5144 17.8083C19.2893 17.4923 19.1399 17.1464 19.0627 16.7915C18.9344 16.2022 19.0048 15.5881 19.2567 15.0446C19.46 14.6059 19.7816 14.2133 20.2123 13.9168L29.5265 7.50563C30.8125 6.62044 32.585 6.92758 33.4856 8.19165C33.8334 8.67987 34.0003 9.23943 34 9.7934C33.9995 10.6737 33.577 11.5399 32.7877 12.0832Z" fill="#F0402C"></path><defs><linearGradient id="paint0_linear_441_2522" x1="7.5" y1="12.5" x2="14.5" y2="18.5" gradientUnits="userSpaceOnUse"><stop stop-color="#020617" stop-opacity="0.5"></stop><stop offset="1" stop-color="#020617" stop-opacity="0"></stop></linearGradient><linearGradient id="paint1_linear_441_2522" x1="25" y1="8" x2="20" y2="0.5" gradientUnits="userSpaceOnUse"><stop stop-color="#020617" stop-opacity="0.5"></stop><stop offset="0.0001" stop-color="#020617" stop-opacity="0.4"></stop><stop offset="1" stop-color="#020617" stop-opacity="0"></stop></linearGradient></defs></svg>